<?xml version="1.0" standalone="no"?>
<!DOCTYPE svg PUBLIC "-//W3C//DTD SVG 20010904//EN"
 "http://www.w3.org/TR/2001/REC-SVG-20010904/DTD/svg10.dtd">
<svg version="1.0" xmlns="http://www.w3.org/2000/svg"
 width="30.000000pt" height="30.000000pt" viewBox="0 0 30.000000 30.000000"
 preserveAspectRatio="xMidYMid meet">

<g transform="translate(0.000000,30.000000) scale(0.100000,-0.100000)"
fill="#000000" stroke="none">
<path d="M88 293 c-17 -3 -36 -18 -55 -46 -37 -55 -40 -136 -6 -183 24 -34 86
-69 106 -60 7 3 2 8 -10 11 -16 5 -23 15 -23 31 0 14 -6 24 -14 24 -22 0 -26
25 -16 83 8 37 7 60 -1 80 -9 22 -9 31 0 40 10 9 17 6 34 -17 19 -26 21 -27
28 -10 7 17 8 17 8 2 1 -10 6 -18 12 -18 6 0 8 8 5 18 -6 16 -5 16 8 0 18 -24
22 -23 34 11 8 24 7 31 -5 35 -15 6 -60 6 -105 -1z m85 -10 c-13 -2 -33 -2
-45 0 -13 2 -3 4 22 4 25 0 35 -2 23 -4z m-113 -64 c0 -5 -7 -9 -15 -9 -15 0
-20 12 -9 23 8 8 24 -1 24 -14z m-18 -54 c-4 -35 21 -105 37 -105 6 0 11 -7
11 -15 0 -8 -4 -15 -8 -15 -14 0 -43 36 -35 43 3 4 1 7 -6 7 -7 0 -9 5 -6 10
3 5 2 10 -4 10 -6 0 -7 7 -4 17 4 11 3 14 -5 9 -7 -4 -12 -3 -12 3 0 5 6 12
13 14 9 4 8 8 -3 16 -10 7 -11 11 -3 11 7 0 10 6 7 13 -3 8 1 14 8 14 9 0 12
-11 10 -32z"/>
<path d="M225 280 c3 -5 1 -10 -5 -10 -6 0 -8 -5 -4 -11 5 -8 8 -8 13 0 4 6 7
-30 6 -80 -1 -69 -5 -94 -16 -103 -9 -6 -14 -17 -11 -24 2 -8 11 -4 24 13 11
14 24 22 29 19 15 -9 -19 -42 -65 -65 -35 -16 -37 -18 -12 -13 72 14 122 84
113 159 -4 41 -52 124 -70 125 -5 0 -5 -4 -2 -10z m45 -66 c0 -8 -4 -12 -10
-9 -5 3 -10 13 -10 21 0 8 5 12 10 9 6 -3 10 -13 10 -21z m20 -84 c0 -5 -4
-10 -10 -10 -5 0 -10 5 -10 10 0 6 5 10 10 10 6 0 10 -4 10 -10z"/>
<path d="M116 205 c4 -8 8 -15 10 -15 2 0 4 7 4 15 0 8 -4 15 -10 15 -5 0 -7
-7 -4 -15z"/>
<path d="M170 210 c0 -5 5 -10 10 -10 6 0 10 5 10 10 0 6 -4 10 -10 10 -5 0
-10 -4 -10 -10z"/>
<path d="M209 198 c-1 -7 -1 -21 0 -30 1 -10 -4 -18 -13 -18 -10 0 -13 6 -9
18 6 14 4 15 -9 5 -8 -7 -18 -10 -21 -6 -4 3 -7 0 -7 -8 -1 -10 -5 -8 -16 6
-16 20 -16 20 -9 -2 5 -20 3 -23 -19 -23 -34 0 -34 -26 0 -33 18 -3 29 1 37
14 13 21 28 25 24 7 -1 -7 12 -15 28 -18 28 -5 28 -6 8 -12 -17 -4 -23 -14
-23 -33 0 -20 -4 -26 -15 -21 -8 3 -15 1 -15 -3 0 -5 6 -11 14 -14 19 -8 38
16 30 37 -4 10 -1 16 9 16 16 0 30 26 22 40 -3 5 -6 27 -7 49 -1 39 -7 55 -9
29z"/>
<path d="M145 190 c3 -5 8 -10 11 -10 2 0 4 5 4 10 0 6 -5 10 -11 10 -5 0 -7
-4 -4 -10z"/>
<path d="M142 99 c-14 -22 -8 -39 14 -39 15 0 19 27 6 47 -6 9 -11 7 -20 -8z"/>
<path d="M93 83 c10 -3 17 -14 17 -29 0 -16 6 -24 17 -24 13 0 14 3 5 12 -7 7
-12 20 -12 30 0 12 -7 18 -22 17 -17 -1 -19 -2 -5 -6z"/>
</g>
</svg>
